<?xml version="1.0" encoding="utf-8"?>
<!-- Svg Vector Icons : http://www.onlinewebfonts.com/icon -->
<!DOCTYPE svg PUBLIC "-//W3C//DTD SVG 1.1//EN" "http://www.w3.org/Graphics/SVG/1.1/DTD/svg11.dtd">
<svg version="1.1" xmlns="http://www.w3.org/2000/svg" xmlns:xlink="http://www.w3.org/1999/xlink" x="0px" y="0px" viewBox="0 0 1000 1000" enable-background="new 0 0 1000 1000" xml:space="preserve">
<metadata> Svg Vector Icons : http://www.onlinewebfonts.com/icon </metadata>
<g><g transform="translate(0.000000,512.000000) scale(0.100000,-0.100000)"><path d="M7680.2,4997.9c-42.3-40.4-48.1-63.5-48.1-192.4c0-80.8,7.7-163.5,19.2-182.8c30.8-55.8,127-80.8,202-50c78.9,34.6,113.5,127,102,277.1c-7.7,86.6-19.2,115.4-61.6,152C7824.5,5059.5,7739.8,5059.5,7680.2,4997.9z"/><path d="M8334.3,4997.9c-46.2-44.2-48.1-57.7-48.1-279s1.9-234.7,48.1-279c59.6-61.6,144.3-61.6,215.5-1.9c53.9,46.2,53.9,48.1,53.9,280.9c0,232.8,0,234.7-53.9,280.9C8478.6,5059.5,8393.9,5059.5,8334.3,4997.9z"/><path d="M7714.8,4372.7c-69.3-28.9-82.7-82.7-82.7-325.1c0-225.1,1.9-230.9,50-269.3c71.2-55.8,163.5-51.9,221.3,9.6c44.3,46.2,46.2,61.6,46.2,280.9c0,228.9,0,230.9-53.9,277C7839.9,4393.8,7787.9,4401.5,7714.8,4372.7z"/><path d="M8328.5,4174.5c-40.4-42.3-42.3-61.6-42.3-442.5c0-371.3,1.9-400.2,38.5-436.7c82.7-82.7,211.6-65.4,263.6,38.5c32.7,63.5,34.6,734.9,1.9,794.6c-32.7,63.5-75,88.5-152,90.4C8392,4218.8,8357.4,4205.3,8328.5,4174.5z"/><path d="M4859.7,4128.3c-631-431-4526.9-3184.1-4582.7-3236c-40.4-38.5-96.2-117.3-125.1-175.1C105.8,623,100,590.3,100,409.4c0-188.5,3.9-209.7,55.8-304c182.8-329,623.3-429,952.3-215.5l117.4,77v-200.1v-200.1l-67.3-42.3c-152-94.3-259.7-288.6-259.7-473.3c0-92.3,11.5-142.4,59.6-234.7c51.9-105.8,188.5-254,232.8-254c7.7,0,15.4-146.2,15.4-325.2v-325.1l-51.9-32.7c-150.1-100-255.9-284.7-255.9-454.1c0-173.1,48.1-278.9,186.6-415.5l121.2-121.2v-298.2v-298.2L1085-3828.9c-140.5-136.6-186.6-242.4-186.6-417.5c0-144.3,67.3-279,203.9-402.1c184.7-169.3-159.7-155.8,3894-155.8c4032.5,0,3707.4-11.5,3884.4,146.2c194.3,175.1,257.8,382.9,184.7,606c-46.2,138.5-211.6,305.9-352.1,355.9l-100,36.6v250.1v250.1l94.3,34.6c121.2,42.3,267.4,175.1,329,294.3c69.3,140.5,77,319.4,15.4,454.1c-75,159.7-221.3,286.7-404,348.2c-30.8,11.5-34.6,40.4-34.6,259.7v246.3l105.8,44.2c132.8,55.8,267.4,184.7,327.1,315.5c130.8,280.9-17.3,617.6-329,746.5l-103.9,44.2v150.1v152l148.1-109.7c221.2-163.5,290.5-190.5,496.4-190.5c144.3,0,190.5,9.6,279,50c234.7,109.7,348.2,275.1,361.7,529.1c9.6,186.6-25,329-111.6,448.3c-38.5,52-230.9,209.7-540.6,438.7l-479.1,355.9V2214l1.9,761.9l-50,48.1l-48.1,50h-557.9c-698.4,0-640.7,32.7-654.1-367.5l-9.6-280.9l-1150.5,854.2c-633,467.5-1173.6,867.7-1202.4,885C5019.4,4214.9,4973.2,4207.2,4859.7,4128.3z M6256.5,2898.9c1133.2-840.7,1644.9-1217.8,2814.7-2081.6c234.7-175.1,446.3-338.6,465.6-365.5c21.2-25,46.2-77,55.8-111.6c50-180.8-134.7-411.7-329-411.7c-80.8,0-177,57.7-507.9,304c-259.7,190.5-698.4,511.7-1945.1,1421.8c-330.9,240.5-842.7,615.6-1140.9,833c-598.3,438.6-644.5,467.5-708,452.1c-25-5.8-315.5-198.2-648.4-429C3243.7,1769.6,2464.5,1230.9,1696.8,696.1c-411.7-288.6-785-544.5-827.3-569.5c-134.7-77-284.7-46.2-392.5,84.7C367.4,344,365.5,505.6,471.3,623c65.4,71.2,4486.5,3187.9,4525,3189.8C5011.7,3812.8,5579.3,3403,6256.5,2898.9z M8440.1,2227.5v-529.1L8215,1865.8c-125.1,90.4-273.2,200.1-327.1,242.4l-102,75v275.1c0,150.1,5.8,279,13.5,284.7c5.8,7.7,153.9,13.5,327.1,13.5h313.6V2227.5z M5311.9,2339.1l309.7-227l-321.3-5.8c-177-1.9-469.4-1.9-652.2,0l-330.9,5.8l325.1,225.1c178.9,125.1,332.8,227,342.5,227S5140.6,2462.2,5311.9,2339.1z M6425.8,1519.5l323.2-234.7l-904.2-5.8c-498.3-1.9-1312.1-1.9-1808.5,0l-900.4,5.8l338.6,236.6l338.6,234.7h1144.7l1144.7-1.9L6425.8,1519.5z M4011.3,290.1l-5.8-659.9L2780-375.5l-1227.4-3.8v250.1v250.1h913.9c963.9,0,1004.3,3.9,1037,86.6c23.1,59.6,11.5,140.4-25,184.7l-36.6,46.2l-756.1,9.6l-756.1,9.6l334.8,230.9l332.8,230.9l473.3,9.6c259.7,5.8,579.1,13.5,709.9,15.4l234.7,3.9L4011.3,290.1z M6970.3,928.9h271.3l325.1-234.7l325.1-236.6l-671.5-9.6l-669.5-9.6l-36.5-46.2c-53.9-65.4-48.1-167.4,13.4-223.2l52-48.1h854.2h854.2l-5.8-244.3l-5.8-246.3H7131.9H5987.1l-5.8,661.8l-3.8,661.8l359.8-11.5C6537.4,934.6,6822.1,928.9,6970.3,928.9z M4823.2,688.4V447.9h-240.5h-240.5v240.5v240.5h240.5h240.5V688.4z M5650.5,688.4V447.9H5410h-240.5v240.5v240.5H5410h240.5V688.4z M4823.2-119.6v-240.5h-240.5h-240.5v240.5v240.5h240.5h240.5V-119.6z M5650.5-119.6v-240.5H5410h-240.5v240.5v240.5H5410h240.5V-119.6z M8701.8-771.9c59.7-59.6,65.4-77,65.4-175.1c0-98.1-5.8-115.4-65.4-175.1l-65.4-65.4h-3640h-3640l-65.4,65.4c-59.6,59.6-65.4,77-65.4,175.1c0,98.1,5.8,115.4,65.4,175.1l65.4,65.4h3640h3640L8701.8-771.9z M3842-1764.6v-250.1H2697.3H1552.5v250.1v250.1h1144.7H3842V-1764.6z M8267-1764.6v-250.1H7208.8H6150.7v250.1v250.1h1058.1H8267V-1764.6z M5804.4-3005.5v-1471.8h-808h-808v1471.8v1471.8h808h808V-3005.5z M3842-2591.9v-252l-1235.1,5.8c-1144.7,5.8-1240.9,7.7-1287.1,40.4c-63.5,42.3-94.3,109.7-94.3,205.9c0,107.7,28.9,167.4,100,211.6c61.6,36.5,98.1,38.5,1290.9,38.5H3842V-2591.9z M8667.1-2380.2c71.2-44.3,100-103.9,100-211.6c0-96.2-30.8-163.5-94.3-205.9c-46.2-32.7-142.4-34.6-1285.2-40.4l-1237.1-5.8v250.1v252h1227.4C8569-2341.8,8605.6-2343.7,8667.1-2380.2z M3842-3409.5V-3650H2697.3H1552.5v240.5v240.5h1144.7H3842V-3409.5z M8267-3409.5V-3650H7208.8H6150.7v240.5v240.5h1058.1H8267V-3409.5z M3842-4227.2v-250.1H2626.1c-1121.6,0-1223.6,1.9-1285.2,34.6c-82.7,40.4-115.4,102-115.4,215.5c0,109.7,55.8,205.9,128.9,223.2c28.9,5.8,63.5,13.5,73.1,17.3c11.5,3.8,557.9,7.7,1217.8,7.7l1196.7,1.9V-4227.2z M8619-3998.2c92.3-25,148.1-109.7,148.1-228.9c0-113.5-32.7-175.1-115.4-215.5c-61.6-32.7-163.5-34.6-1283.3-34.6H6150.7v250.1v252l1198.6-1.9C8080.4-3979,8574.8-3986.7,8619-3998.2z"/><path d="M4390.3-2890.1c-61.6-59.6-61.6-144.3-1.9-213.5c63.5-75,171.2-75,234.7,0c94.3,107.7,25,261.6-117.4,261.6C4457.6-2842,4421.1-2857.4,4390.3-2890.1z"/></g></g>
</svg>