<?xml version="1.0" encoding="utf-8"?>
<!-- Svg Vector Icons : http://www.onlinewebfonts.com/icon -->
<!DOCTYPE svg PUBLIC "-//W3C//DTD SVG 1.1//EN" "http://www.w3.org/Graphics/SVG/1.1/DTD/svg11.dtd">
<svg version="1.1" xmlns="http://www.w3.org/2000/svg" xmlns:xlink="http://www.w3.org/1999/xlink" x="0px" y="0px" viewBox="0 0 1000 1000" enable-background="new 0 0 1000 1000" xml:space="preserve">
<metadata> Svg Vector Icons : http://www.onlinewebfonts.com/icon </metadata>
<g><path d="M383.7,374c-22.4,0-32.9,25.9-32.9,58.3c0,33.9,11.5,58.3,33.4,58.3c21.4,0,31.9-21.9,31.9-58.3C416.1,399.4,407.1,374,383.7,374z"/><path d="M990,500c0-34.9-72.1-61.1-79.5-93.7c-7.7-33.7,45.7-88.6,31.1-118.9c-14.9-30.9-91.3-23.2-112.4-49.7c-21.3-26.6,3.1-99.4-23.6-120.7c-26.5-21.2-92,18.6-122.9,3.7c-30.4-14.7-40-90.8-73.6-98.5c-32.6-7.4-74.2,56.9-109.1,56.9c-34.9,0-76.4-64.3-109.1-56.9c-33.7,7.7-43.2,83.8-73.6,98.4c-30.9,14.9-96.4-24.9-122.9-3.7c-26.7,21.3-2.3,94-23.6,120.7c-21.2,26.5-97.5,18.9-112.4,49.8c-14.7,30.4,38.7,85.3,31.1,118.9C82.1,438.9,10,465.2,10,500c0,34.8,72.1,61.1,79.5,93.7c7.7,33.7-45.7,88.5-31.1,118.9c14.9,30.9,91.3,23.3,112.4,49.8c21.3,26.6-3.1,99.4,23.6,120.6c26.5,21.2,92-18.6,122.9-3.7c30.4,14.7,39.9,90.8,73.6,98.4c32.6,7.4,74.2-56.8,109.1-56.8c34.8,0,76.4,64.3,109.1,56.8c33.7-7.6,43.2-83.8,73.6-98.4c30.9-14.9,96.4,24.9,122.9,3.7c26.7-21.3,2.3-94,23.6-120.7c21.2-26.5,97.5-18.9,112.4-49.8c14.7-30.4-38.7-85.3-31.1-118.9C917.9,561.1,990,534.8,990,500z M294.6,434.2c0-57.8,35.4-101.6,90.7-101.6c55.7,0,87.1,40.8,87.1,96.1c0,67.8-42.8,103.1-89.7,103.1C333.4,531.9,294.6,495,294.6,434.2z M427,667.3h-40.3l185.8-334.7h40.8L427,667.3z M615.8,666.3c-48.8,0-87.6-36.8-88.1-97.6c0-57.8,35.3-101.6,90.6-101.6c55.8,0,87.2,40.8,87.2,96.1C705.4,631,662.5,666.3,615.8,666.3z"/><path d="M617.3,508.4c-23,0-32.9,25.9-32.9,58.3c-0.5,33.8,10.9,58.3,32.9,58.3c21.4,0,31.8-21.9,31.8-58.3C649.1,533.9,640.7,508.4,617.3,508.4z"/></g>
</svg>